<?xml version="1.0" standalone="no"?>
<!DOCTYPE svg PUBLIC "-//W3C//DTD SVG 20010904//EN"
 "http://www.w3.org/TR/2001/REC-SVG-20010904/DTD/svg10.dtd">
<svg version="1.0" xmlns="http://www.w3.org/2000/svg"
 width="512.000000pt" height="512.000000pt" viewBox="0 0 512.000000 512.000000"
 preserveAspectRatio="xMidYMid meet">

<g transform="translate(0.000000,512.000000) scale(0.100000,-0.100000)"
fill="#000000" stroke="none">
<path d="M3407 5098 c-18 -18 -94 -271 -342 -1140 -346 -1211 -333 -1157 -272
-1186 26 -12 51 -7 280 53 1928 512 2012 535 2030 557 14 17 17 32 13 61 -11
65 -75 241 -93 255 -30 22 -79 15 -102 -14 -27 -34 -26 -47 4 -129 14 -37 24
-69 22 -72 -5 -5 -301 -83 -303 -80 -1 1 -20 49 -43 107 -161 415 -450 754
-827 971 -92 53 -229 116 -299 139 -22 7 -43 15 -47 19 -6 5 54 239 77 298 3
9 22 6 72 -13 451 -168 814 -455 1097 -866 81 -117 108 -135 154 -101 50 37
51 63 2 140 -154 246 -406 510 -655 684 -177 124 -397 236 -599 303 -125 42
-140 43 -169 14z m58 -638 c409 -162 729 -456 922 -845 64 -127 108 -244 97
-254 -5 -5 -31 -14 -59 -20 -27 -7 -57 -14 -65 -16 -11 -4 -21 10 -34 48 -25
73 -122 167 -195 192 -166 55 -370 -41 -431 -202 -18 -48 -21 -72 -17 -138 l5
-81 -370 -98 c-203 -54 -372 -95 -375 -92 -3 3 23 108 59 233 l65 228 54 6
c80 9 152 44 204 100 64 68 87 126 93 230 4 78 2 92 -23 148 -25 56 -83 122
-128 147 -15 9 -11 30 45 227 34 119 65 217 70 217 4 0 41 -13 83 -30z"/>
<path d="M3582 4177 c-12 -13 -22 -31 -22 -40 0 -36 123 -393 143 -414 36 -40
95 -27 117 26 11 26 6 48 -50 218 -34 103 -68 198 -76 211 -20 31 -82 31 -112
-1z"/>
<path d="M2100 4729 c-155 -18 -393 -75 -541 -129 -521 -192 -954 -556 -1234
-1036 -485 -830 -418 -1876 167 -2636 373 -483 928 -808 1548 -905 159 -24
499 -24 660 0 527 81 962 294 1328 651 381 371 614 827 699 1366 14 88 18 168
17 345 -1 201 -4 248 -27 375 -34 189 -46 229 -79 253 l-26 20 -467 -122
c-1349 -352 -1658 -431 -1660 -429 -2 2 118 462 266 1023 316 1195 288 1083
277 1117 -15 43 -113 71 -353 103 -126 16 -447 19 -575 4z m510 -149 c47 -5
124 -17 171 -26 l85 -16 -39 -146 c-21 -81 -40 -149 -42 -151 -3 -2 -50 4
-106 13 -556 93 -1132 -74 -1565 -453 -95 -82 -230 -231 -244 -266 -15 -42 33
-105 80 -105 6 0 79 69 163 153 179 180 286 259 482 357 219 109 406 161 656
181 183 14 507 -16 495 -46 -2 -7 -25 -93 -51 -191 -25 -99 -50 -192 -55 -209
l-10 -30 -92 0 c-78 -1 -101 -5 -143 -25 -67 -33 -131 -99 -163 -168 -38 -81
-38 -193 0 -274 34 -72 101 -138 172 -169 31 -13 54 -29 52 -35 -13 -34 -156
-593 -156 -608 0 -24 45 -66 72 -66 13 0 225 52 471 116 l448 117 16 -24 c32
-47 98 -102 152 -127 69 -32 171 -35 249 -8 107 37 205 159 219 274 6 51 7 52
47 63 23 5 56 14 75 19 19 5 37 8 39 6 2 -2 10 -42 19 -87 25 -131 22 -432 -5
-580 -71 -389 -273 -749 -565 -1007 -420 -372 -977 -518 -1535 -402 -502 105
-959 459 -1191 925 -239 477 -251 1033 -35 1506 24 53 44 101 44 107 0 6 -12
24 -26 41 -31 37 -74 41 -104 11 -24 -24 -70 -124 -111 -240 -320 -902 81
-1900 937 -2337 401 -205 886 -259 1326 -148 542 137 1003 513 1248 1020 99
203 156 403 181 636 14 129 6 382 -15 503 -9 49 -15 91 -13 93 3 2 71 21 152
42 99 26 148 35 150 27 14 -40 37 -203 47 -328 52 -682 -251 -1396 -781 -1840
-415 -346 -896 -520 -1436 -521 -366 0 -647 65 -980 228 -553 270 -952 734
-1139 1325 -244 770 -44 1618 518 2199 379 391 849 618 1396 674 79 8 361 6
440 -3z"/>
<path d="M1675 3795 c-14 -13 -25 -34 -25 -46 0 -23 178 -337 213 -376 42 -47
127 -14 127 48 0 25 -175 335 -213 377 -27 30 -71 29 -102 -3z"/>
<path d="M1135 3322 c-69 -33 -137 -102 -168 -170 -33 -72 -31 -198 4 -273 34
-73 96 -134 168 -167 45 -22 71 -26 136 -27 71 0 88 4 147 33 81 40 139 102
169 181 17 45 20 71 17 136 -5 94 -36 163 -99 225 -65 63 -120 85 -224 88 -82
3 -95 0 -150 -26z"/>
<path d="M2054 2778 c-46 -35 -267 -229 -287 -251 -43 -48 6 -138 67 -123 35
9 335 272 342 301 6 25 -10 63 -35 82 -24 19 -55 15 -87 -9z"/>
<path d="M1195 2274 c-82 -7 -167 -13 -188 -13 -45 -1 -87 -37 -87 -75 0 -14
11 -37 24 -52 l23 -28 189 13 c260 17 284 25 284 96 0 33 -42 75 -72 74 -13
-1 -90 -8 -173 -15z"/>
<path d="M3775 2169 c-11 -6 -71 -86 -132 -180 -88 -131 -113 -176 -113 -202
0 -57 61 -92 106 -62 34 22 244 341 244 371 0 36 -10 54 -41 69 -32 17 -37 17
-64 4z"/>
<path d="M2896 2146 c-125 -11 -141 -15 -157 -35 -25 -30 -24 -62 2 -95 25
-31 54 -32 303 -12 145 12 161 15 178 36 22 27 23 68 2 98 -14 20 -23 22 -102
21 -48 -1 -150 -7 -226 -13z"/>
<path d="M2066 1989 c-26 -20 -34 -57 -20 -93 9 -24 351 -238 380 -238 59 0
99 88 57 124 -20 17 -305 199 -340 217 -31 16 -47 14 -77 -10z"/>
<path d="M1328 1815 c-182 -67 -272 -278 -193 -452 32 -73 101 -143 172 -175
73 -33 199 -31 273 3 70 33 132 95 167 167 23 48 28 70 28 137 0 71 -4 88 -33
147 -61 124 -166 189 -305 187 -40 0 -89 -7 -109 -14z"/>
<path d="M3009 1624 c-107 -37 -196 -140 -220 -252 -31 -150 47 -304 190 -371
77 -36 200 -37 278 -2 59 26 146 112 169 167 71 170 4 357 -158 440 -67 35
-187 43 -259 18z"/>
<path d="M2152 1334 c-15 -10 -22 -25 -22 -46 0 -49 102 -400 122 -420 28 -28
82 -24 107 8 12 15 21 32 21 39 0 33 -110 399 -125 415 -22 24 -72 26 -103 4z"/>
<path d="M2742 789 c2 -6 8 -10 13 -10 5 0 11 4 13 10 2 6 -4 11 -13 11 -9 0
-15 -5 -13 -11z"/>
</g>
</svg>
